<?xml version="1.0" standalone="no"?>
<!DOCTYPE svg PUBLIC "-//W3C//DTD SVG 20010904//EN"
 "http://www.w3.org/TR/2001/REC-SVG-20010904/DTD/svg10.dtd">
<svg version="1.0" xmlns="http://www.w3.org/2000/svg"
 width="16.000000pt" height="16.000000pt" viewBox="0 0 16.000000 16.000000"
 preserveAspectRatio="xMidYMid meet">
<metadata>
Created by potrace 1.11, written by Peter Selinger 2001-2013
</metadata>
<g transform="translate(0.000000,16.000000) scale(0.001481,-0.001481)"
fill="#000000" stroke="none">
<path d="M0 8840 c0 -159 0 -160 23 -165 13 -4 34 -5 48 -4 40 4 73 -1 65 -8
-4 -4 -36 -6 -72 -4 l-64 3 0 -3431 0 -3431 209 0 208 0 9 43 9 42 145 6 c80
4 274 7 432 8 l287 1 -15 -35 c-29 -71 -141 -65 1165 -65 l1178 0 7 103 c14
204 36 483 42 520 4 23 13 41 26 48 14 7 85 11 198 10 l177 -2 -4 26 c-3 14
-1 31 5 38 5 6 15 31 21 55 13 46 39 57 63 24 26 -37 60 -46 205 -50 172 -5
273 3 273 24 0 12 -22 13 -137 8 -81 -4 -169 -2 -213 4 -69 10 -78 14 -107 49
-33 38 -42 63 -22 63 5 0 27 11 47 25 32 22 47 25 124 25 81 0 238 16 247 26
3 2 0 9 -5 14 -5 5 -49 5 -114 -1 -58 -6 -129 -7 -157 -4 l-53 6 1 37 c1 20 4
46 7 57 17 51 22 54 151 67 85 9 126 17 129 26 3 11 -19 12 -122 6 l-126 -7 0
39 c1 22 9 55 18 74 15 31 24 36 72 47 30 6 70 12 88 12 22 1 32 5 29 14 -5
13 -16 14 -99 3 -66 -8 -65 -10 -42 70 19 66 34 82 85 90 24 4 39 12 39 21 0
11 -8 12 -35 7 -28 -5 -36 -3 -42 12 -9 25 28 129 47 129 11 0 17 17 21 65 9
92 90 305 113 297 6 -2 14 -23 17 -48 3 -24 7 -39 8 -34 1 6 6 40 10 77 9 64
12 70 68 127 68 70 115 93 184 90 27 -2 54 2 59 7 6 6 15 35 20 65 5 30 23
119 39 199 17 80 31 156 31 171 0 14 6 31 12 37 10 10 24 1 68 -46 30 -32 70
-69 89 -82 42 -31 101 -84 198 -177 41 -40 79 -73 83 -73 4 0 14 -7 21 -16 12
-15 30 -16 132 -10 118 6 207 22 207 36 0 5 -33 13 -72 20 -41 6 -104 26 -143
45 -38 18 -77 36 -85 39 -54 22 -123 81 -299 255 -220 219 -315 343 -326 428
-2 15 -4 30 -4 33 -1 3 -5 -1 -10 -8 -6 -10 -14 -2 -30 29 -24 45 -44 171 -56
354 -4 55 -15 127 -25 160 -10 33 -25 89 -34 125 -43 184 -59 242 -74 272 -9
18 -18 60 -20 93 -3 59 -3 60 30 76 18 9 32 22 30 29 -4 18 17 39 56 56 46 19
76 18 120 -5 43 -22 42 -22 123 -181 76 -152 155 -237 270 -294 187 -92 452
-60 609 76 28 24 56 43 62 43 7 0 14 8 16 19 2 10 16 39 31 65 46 79 73 153
78 215 6 68 17 96 38 96 7 0 16 6 18 13 3 6 6 8 6 2 1 -6 22 -9 51 -7 27 2 66
-2 87 -9 21 -7 43 -13 48 -14 6 0 11 -11 13 -25 5 -40 34 -112 62 -155 30 -47
40 -69 66 -149 19 -57 45 -88 60 -73 4 4 2 18 -6 31 -7 14 -10 32 -6 41 5 15
11 14 49 -8 152 -88 330 -91 511 -7 37 16 68 30 70 30 2 0 1 -10 -1 -22 -10
-51 -109 -94 -268 -119 -92 -14 -125 -24 -125 -39 0 -6 56 -10 154 -10 170 0
207 -7 199 -39 -5 -19 -37 -38 -56 -33 -5 1 -6 -2 -3 -7 6 -10 -44 -47 -58
-43 -4 2 -15 -3 -23 -9 -26 -22 -137 -13 -196 16 -65 33 -79 50 -71 91 4 21 1
35 -8 40 -12 8 -108 44 -116 44 -3 0 -2 -13 1 -30 7 -34 -8 -49 -22 -21 -6 10
-18 21 -26 25 -24 9 -81 -19 -100 -48 -35 -53 -183 -79 -254 -43 -48 24 -78
21 -141 -14 -36 -19 -63 -28 -77 -24 -17 4 -23 1 -23 -10 0 -9 -11 -20 -25
-25 -32 -12 -32 -33 1 -59 32 -25 116 -29 168 -7 40 16 79 11 102 -15 28 -31
37 -151 15 -191 -15 -27 -94 -78 -121 -78 -11 0 -84 -10 -162 -21 -89 -14
-181 -21 -244 -20 -86 2 -104 -1 -124 -17 -34 -28 -17 -42 51 -42 40 0 73 -7
99 -20 47 -24 73 -25 90 -5 7 9 19 14 26 11 8 -3 14 5 16 22 3 26 5 27 61 24
32 -1 68 3 80 9 12 7 41 11 66 10 24 -1 49 3 56 9 7 6 48 12 92 14 44 2 85 6
92 10 6 4 60 8 120 9 60 1 113 6 117 10 4 4 18 7 30 7 31 0 40 -36 25 -95 -14
-56 -14 -55 8 -55 10 0 33 14 51 30 18 17 40 30 51 30 12 0 16 5 13 14 -5 14
29 32 52 28 7 -1 17 11 22 28 6 16 22 45 36 63 13 17 29 44 35 60 8 20 17 27
36 27 17 0 35 11 52 30 27 33 57 38 90 15 12 -8 29 -12 37 -9 28 11 85 -6 97
-28 12 -23 2 -221 -11 -213 -4 2 -7 -8 -8 -23 0 -15 -14 -68 -30 -117 -16 -50
-35 -109 -41 -133 -7 -24 -21 -51 -32 -60 -18 -15 -62 -89 -62 -102 1 -18 -55
-60 -65 -48 -5 6 -30 -50 -51 -117 -29 -90 -62 -153 -101 -195 -30 -32 -31
-35 -14 -47 31 -22 64 -15 153 36 103 60 129 70 202 82 77 12 155 -3 192 -39
47 -44 76 -132 43 -132 -9 0 -15 -19 -20 -56 -9 -75 30 -195 87 -267 22 -29
44 -54 47 -57 10 -7 75 -110 118 -185 70 -122 86 -153 148 -275 34 -69 83
-153 108 -188 25 -34 46 -66 46 -71 0 -5 32 -42 71 -83 39 -40 76 -85 81 -100
6 -16 14 -25 19 -22 5 3 9 -2 9 -10 0 -8 9 -21 20 -29 27 -19 93 -81 157 -149
35 -37 54 -67 58 -91 4 -21 11 -40 16 -43 5 -3 9 -16 9 -29 0 -14 9 -48 20
-76 10 -29 17 -56 14 -61 -3 -4 0 -8 6 -8 7 0 10 -7 6 -15 -3 -8 0 -15 6 -15
6 0 9 -3 5 -6 -3 -3 8 -32 24 -64 16 -31 29 -63 29 -69 0 -6 4 -19 10 -29 14
-25 45 -101 61 -147 8 -22 24 -55 36 -73 12 -19 25 -42 28 -53 4 -10 12 -19
20 -19 7 0 16 -7 19 -16 3 -8 2 -12 -4 -9 -17 11 -11 0 20 -35 17 -18 30 -44
30 -57 0 -13 9 -31 20 -40 14 -13 16 -19 7 -25 -6 -4 475 -8 1071 -8 l1082 0
0 298 c0 163 -4 312 -9 329 -6 20 -6 35 0 38 16 10 11 65 -6 65 -16 0 -29 25
-39 72 -3 14 -17 39 -30 55 -14 16 -28 43 -31 59 -4 16 -14 44 -22 62 -8 19
-12 45 -9 58 4 15 0 39 -10 60 -22 47 -12 54 84 54 l72 0 0 3025 0 3025 -5400
0 -5400 0 0 -160z m388 -185 c9 -9 -190 -4 -213 6 -11 4 30 6 94 4 62 -2 116
-7 119 -10z m217 -5 c23 -6 15 -8 -37 -9 -37 0 -70 4 -73 9 -7 12 64 12 110 0z
m78 -7 c-7 -2 -21 -2 -30 0 -10 3 -4 5 12 5 17 0 24 -2 18 -5z m150 -10 c-7
-2 -19 -2 -25 0 -7 3 -2 5 12 5 14 0 19 -2 13 -5z m586 -13 c325 -20 439 -37
176 -26 -254 11 -407 17 -485 21 -41 2 -83 4 -92 4 -10 1 -18 6 -18 11 0 14
60 13 419 -10z m446 -30 c5 -7 -11 -9 -47 -5 -69 8 -74 15 -10 15 28 0 54 -5
57 -10z m73 -7 c-10 -2 -26 -2 -35 0 -10 3 -2 5 17 5 19 0 27 -2 18 -5z m318
-15 c-30 -5 -74 -5 -115 0 -64 9 -62 9 49 10 99 0 108 -2 66 -10z m3554 -795
c8 -3 50 -7 93 -10 43 -2 90 -8 103 -14 14 -5 35 -9 47 -9 12 -1 40 -9 62 -20
22 -11 48 -19 58 -20 9 0 17 -7 17 -15 0 -8 5 -15 10 -15 17 0 110 -91 127
-125 9 -16 24 -37 34 -46 11 -9 31 -42 45 -74 31 -68 120 -163 177 -190 28
-13 43 -29 54 -56 8 -22 21 -39 29 -39 33 0 47 -106 19 -146 -8 -12 -39 -33
-68 -48 -38 -18 -63 -40 -82 -69 -41 -62 -114 -145 -133 -152 -59 -20 -167
-257 -124 -272 6 -3 12 4 13 14 0 10 3 13 6 6 7 -18 23 -16 23 2 0 8 7 15 16
15 22 0 44 25 44 52 1 29 23 59 41 55 8 -2 10 -2 6 1 -11 6 33 52 50 52 8 0
16 7 19 15 4 8 11 15 17 15 5 0 25 11 43 25 18 14 36 25 40 25 3 0 23 15 44
33 71 61 84 68 120 65 34 -3 35 -4 38 -52 3 -43 0 -51 -27 -74 -17 -13 -31
-30 -31 -37 0 -6 -26 -19 -57 -29 -79 -25 -229 -110 -279 -158 -41 -39 -44
-40 -175 -60 -180 -28 -194 -27 -259 11 -131 79 -237 101 -450 95 -85 -3 -186
-9 -225 -15 -98 -15 -273 -73 -385 -127 -52 -25 -102 -46 -110 -47 -8 -1 -46
-12 -84 -23 -37 -12 -72 -22 -77 -22 -14 0 -10 138 6 210 32 138 35 171 39
355 3 202 7 218 59 281 23 28 67 142 67 173 0 8 9 34 21 58 17 35 26 43 57 49
39 7 92 33 92 45 0 13 78 89 91 89 7 0 40 29 75 64 38 39 74 67 93 71 16 3 35
13 42 21 7 8 37 27 68 41 51 25 67 27 204 29 82 1 151 5 154 8 6 6 76 -1 103
-11z m984 -1199 c10 -26 7 -61 -6 -72 -7 -5 -51 -13 -98 -17 -53 -4 -107 -16
-145 -32 -33 -13 -68 -26 -78 -28 -18 -4 -18 -3 0 27 39 66 179 137 269 138
38 0 53 -4 58 -16z m584 -37 c2 -12 -3 -17 -17 -17 -12 0 -21 6 -21 13 0 31
32 34 38 4z m-1635 -72 c151 -35 231 -99 262 -207 32 -114 5 -244 -74 -360
-48 -72 -53 -76 -126 -121 -63 -38 -214 -87 -270 -87 -65 0 -178 31 -246 66
-91 48 -169 131 -217 231 -33 71 -37 86 -37 163 0 100 16 142 83 208 91 91
245 135 449 127 61 -3 141 -12 176 -20z m1009 -42 c10 -9 18 -27 18 -41 0 -14
8 -31 17 -38 10 -7 16 -14 13 -16 -3 -2 -18 -11 -35 -20 -38 -21 -45 -41 -14
-36 17 2 25 -3 27 -17 7 -34 23 -45 68 -45 46 0 64 17 64 61 0 20 4 21 41 16
59 -8 102 -51 94 -94 -3 -17 -2 -33 2 -35 11 -4 46 -55 67 -95 18 -37 42 -42
63 -15 63 80 113 217 113 310 0 26 4 41 10 37 6 -3 10 -38 10 -77 0 -97 -31
-190 -91 -272 -68 -91 -130 -137 -232 -171 -76 -24 -96 -27 -184 -23 -73 3
-111 10 -147 26 -139 62 -237 208 -252 371 -7 69 -6 70 20 82 14 7 26 18 26
25 0 20 32 26 50 9 9 -8 20 -12 23 -8 4 3 13 -2 21 -12 10 -14 30 -20 76 -23
75 -5 90 7 90 75 0 47 11 54 42 26z m-1836 -114 c10 -17 -13 -36 -27 -22 -12
12 -4 33 11 33 5 0 12 -5 16 -11z m59 -9 c0 -22 -29 -18 -33 3 -3 14 1 18 15
15 10 -2 18 -10 18 -18z m1645 -681 c0 -7 11 -21 24 -33 40 -36 39 -61 -5 -92
-22 -15 -42 -24 -46 -20 -3 3 -1 6 5 6 7 0 12 5 12 10 0 6 -7 10 -15 10 -18 0
-25 77 -10 118 6 15 35 16 35 1z m-220 -88 c0 -12 -20 -25 -27 -18 -7 7 6 27
18 27 5 0 9 -4 9 -9z m-4930 -1691 c-5 -36 -12 -132 -15 -215 l-7 -150 25 47
c14 26 29 63 33 82 5 30 10 35 28 31 57 -12 117 -8 113 8 -1 7 10 13 28 14 17
0 36 2 43 2 9 1 11 8 7 21 -5 17 -2 20 20 20 25 0 26 -1 20 -47 -4 -37 -3 -43
5 -25 5 12 11 22 12 22 9 0 15 -341 8 -480 l-5 -105 38 -3 c35 -3 37 -5 37
-37 0 -23 7 -39 22 -49 30 -21 33 -89 5 -136 -11 -19 -38 -66 -60 -105 -22
-38 -53 -86 -70 -105 -16 -20 -39 -51 -51 -71 -11 -19 -44 -70 -73 -113 -29
-42 -60 -95 -69 -117 -10 -21 -21 -39 -25 -39 -4 0 -18 -21 -31 -47 -13 -25
-38 -58 -57 -72 -19 -14 -57 -46 -86 -71 -80 -68 -155 -120 -176 -120 -27 0
-14 24 29 54 38 26 133 113 167 155 l20 23 -67 -3 c-80 -4 -97 5 -37 21 24 6
59 16 77 22 l34 10 -34 32 c-24 24 -39 31 -53 26 -11 -3 -40 -7 -65 -9 -25 -1
-68 -6 -96 -12 -44 -8 -52 -14 -62 -43 -7 -18 -12 -49 -12 -69 0 -20 -4 -39
-10 -42 -5 -3 -10 -17 -10 -30 0 -19 -7 -26 -27 -31 -16 -3 -44 -10 -63 -14
-64 -15 -128 -21 -133 -13 -3 4 6 60 19 123 17 79 24 144 23 209 -1 51 3 96 7
100 5 3 19 24 30 46 20 37 21 48 13 150 -8 108 3 267 19 273 24 8 34 24 39 60
5 39 7 41 47 47 46 6 189 16 223 16 12 -1 25 4 29 10 4 8 9 7 15 -2 6 -10 9
-6 9 14 0 15 -5 27 -10 27 -12 0 -5 60 10 95 21 49 61 325 50 345 -5 10 -7 48
-3 84 4 51 11 70 26 81 14 10 21 29 24 67 5 61 21 110 34 102 5 -3 9 0 9 7 0
8 3 10 10 3 6 -6 6 -34 0 -74z m1372 -30 c91 0 98 -1 98 -20 0 -18 -6 -19
-181 -14 -129 3 -185 1 -195 -7 -9 -8 -14 -33 -14 -76 0 -70 -12 -103 -36
-103 -14 0 -15 14 -9 103 4 56 12 108 19 116 8 11 32 12 115 7 57 -3 148 -6
203 -6z m-442 -22 c0 -39 -21 -242 -25 -246 -2 -3 -19 -6 -36 -8 -18 -2 -38
-9 -45 -15 -10 -9 -14 -9 -14 0 0 8 -42 11 -136 11 l-136 0 -29 29 c-33 34
-35 57 -18 176 l11 75 214 0 214 0 0 -22z m-785 -77 c3 -5 1 -12 -5 -16 -5 -3
-10 1 -10 9 0 18 6 21 15 7z m-122 -66 c4 -8 2 -17 -3 -20 -6 -4 -10 3 -10 14
0 25 6 27 13 6z m122 5 c3 -5 1 -10 -4 -10 -6 0 -11 5 -11 10 0 6 2 10 4 10 3
0 8 -4 11 -10z m192 -82 c-3 -8 -6 -5 -6 6 -1 11 2 17 5 13 3 -3 4 -12 1 -19z
m3 -39 c0 -5 -4 -9 -10 -9 -5 0 -10 7 -10 16 0 8 5 12 10 9 6 -3 10 -10 10
-16z m157 -199 c-3 -11 -1 -20 4 -20 5 0 9 -11 9 -25 0 -35 -45 -31 -50 5 -4
29 0 41 12 34 8 -5 9 -2 5 9 -4 12 -1 17 9 17 11 0 15 -6 11 -20z m3 -119 c0
-24 -13 -71 -20 -71 -5 0 -6 10 -3 23 4 18 3 19 -6 7 -9 -13 -11 -12 -11 3 0
10 -4 15 -10 12 -12 -7 -12 -3 -4 19 6 17 54 23 54 7z m-78 -33 c-7 -7 -12 -8
-12 -2 0 14 12 26 19 19 2 -3 -1 -11 -7 -17z m28 -18 c0 -5 -2 -10 -4 -10 -3
0 -8 5 -11 10 -3 6 -1 10 4 10 6 0 11 -4 11 -10z m40 -78 c0 -4 -11 -9 -25
-10 -14 -1 -25 3 -25 8 0 6 11 10 25 10 14 0 25 -4 25 -8z m-1522 -125 c20
-16 14 -34 -40 -109 -28 -40 -63 -95 -76 -121 -26 -49 -92 -107 -123 -107 -10
0 -25 8 -35 17 -10 10 -39 20 -67 23 l-50 5 2 75 c2 79 17 173 32 203 8 14 25
17 92 18 45 1 109 4 142 8 66 7 104 3 123 -12z m9131 -20 c12 -24 21 -51 21
-61 0 -9 5 -27 11 -38 8 -14 8 -23 0 -31 -14 -14 -14 -57 0 -57 6 0 9 -16 7
-37 -3 -35 -8 -40 -60 -68 l-57 -30 -41 40 c-22 21 -40 43 -40 48 0 5 -8 17
-18 26 -10 9 -31 35 -48 57 -16 23 -47 66 -70 95 -23 30 -44 64 -48 77 l-7 22
164 0 165 0 21 -43z m-9083 -388 l29 -11 -27 -14 c-16 -8 -29 -26 -33 -44 -5
-23 -12 -30 -31 -30 -22 0 -24 4 -24 46 0 37 4 47 20 51 11 3 20 10 20 15 0 5
4 7 9 4 4 -3 21 -10 37 -17z"/>
<path d="M5384 6692 c3 -6 0 -14 -7 -19 -18 -10 -28 -49 -13 -52 6 -1 36 -3
66 -5 30 -1 72 -10 93 -19 33 -14 39 -14 44 -2 3 8 12 15 20 15 8 0 13 3 11 8
-3 4 -10 21 -17 39 -7 17 -20 32 -29 32 -9 1 -52 4 -96 7 -54 4 -77 3 -72 -4z"/>
<path d="M6391 6553 c-1 -17 16 -25 25 -12 4 7 3 9 -4 5 -5 -3 -13 0 -15 6 -4
9 -6 10 -6 1z"/>
<path d="M5364 6332 c-38 -15 -97 -45 -130 -67 -32 -22 -71 -46 -86 -53 -16
-6 -28 -18 -28 -26 0 -12 11 -13 58 -9 50 5 71 13 117 47 8 6 24 0 47 -18 l35
-26 69 15 c78 18 103 41 104 93 0 33 1 33 33 27 17 -4 43 -15 57 -24 24 -17
100 -29 100 -16 0 5 -101 54 -144 69 -11 4 -52 9 -90 11 -59 3 -83 -1 -142
-23z"/>
<path d="M5505 6150 c-3 -5 1 -10 9 -10 9 0 16 5 16 10 0 6 -4 10 -9 10 -6 0
-13 -4 -16 -10z"/>
<path d="M5331 6074 c0 -11 3 -14 6 -6 3 7 2 16 -1 19 -3 4 -6 -2 -5 -13z"/>
<path d="M1771 3494 c0 -11 3 -14 6 -6 3 7 2 16 -1 19 -3 4 -6 -2 -5 -13z"/>
<path d="M2005 3770 c-2 -3 -7 -48 -10 -100 l-7 -95 173 1 174 0 9 93 c4 51 7
94 5 96 -7 6 -340 12 -344 5z"/>
<path d="M5650 5623 c-68 -5 -90 -12 -90 -28 0 -50 154 -53 191 -3 17 22 17
23 1 30 -17 7 -25 7 -102 1z"/>
<path d="M5517 5396 c-42 -40 -65 -81 -54 -92 3 -3 27 14 55 38 27 24 59 51
71 60 28 23 27 38 -3 38 -15 0 -41 -17 -69 -44z"/>
<path d="M6365 4074 c-33 -8 -105 -14 -160 -15 -96 0 -189 -13 -210 -29 -30
-23 -107 -60 -125 -60 -11 0 -29 -5 -39 -12 -16 -9 -40 -9 -113 1 -115 17
-193 15 -247 -4 -26 -9 -39 -10 -35 -3 5 7 -2 9 -20 6 -14 -3 -26 -1 -26 3 0
5 -6 6 -13 3 -7 -2 -27 2 -43 11 -33 17 -64 20 -64 6 0 -14 51 -66 80 -82 16
-9 77 -15 175 -19 l150 -5 12 -45 c32 -123 41 -150 66 -191 14 -24 39 -58 54
-74 36 -39 66 -92 58 -105 -3 -5 4 -14 15 -20 14 -7 20 -21 20 -45 0 -18 5
-37 10 -40 19 -12 10 -43 -20 -68 -16 -14 -30 -30 -30 -36 0 -6 -4 -11 -10
-11 -12 0 -14 -43 -2 -54 4 -4 7 -22 7 -39 0 -29 2 -31 38 -32 20 -1 37 2 37
7 0 5 30 8 68 7 56 -1 82 4 160 35 51 20 107 36 125 36 58 0 93 -55 101 -158
7 -95 21 -112 53 -66 59 83 208 179 267 171 l28 -4 -6 56 c-19 157 -19 171 -2
225 10 30 26 65 37 77 12 14 19 37 19 63 1 42 18 76 39 76 6 0 11 4 11 10 0
12 53 40 77 40 12 0 25 17 39 48 11 26 20 51 20 56 -1 6 -17 9 -37 7 -35 -2
-54 13 -120 96 -5 7 -25 12 -44 11 -19 -1 -37 1 -40 4 -5 5 24 68 36 78 3 3
12 16 19 29 12 24 12 24 -26 16 -22 -5 -71 -9 -111 -9 -65 -1 -76 2 -118 32
-50 35 -68 37 -160 16z"/>
<path d="M4607 3678 c-16 -60 37 -482 103 -823 25 -134 108 -386 128 -393 16
-5 15 24 -4 78 -9 25 -22 65 -29 90 -8 25 -23 77 -35 115 -58 192 -118 535
-144 825 -8 92 -14 126 -19 108z"/>
<path d="M6960 2755 c-6 -15 -10 -29 -10 -33 0 -30 -163 -516 -206 -614 -19
-42 -34 -78 -34 -81 0 -2 -22 -52 -50 -110 -27 -58 -50 -108 -50 -111 0 -3 8
-6 18 -6 18 0 34 30 125 240 59 137 160 427 207 598 29 103 37 122 54 122 26
0 15 10 -18 16 -21 4 -28 0 -36 -21z"/>
<path d="M7049 2773 c-1 -5 -1 -11 0 -15 0 -5 -5 -8 -11 -8 -9 0 -9 -3 1 -9 8
-5 21 -7 29 -3 10 3 13 1 8 -7 -5 -7 5 -17 29 -27 33 -14 36 -18 33 -52 -3
-35 -5 -37 -40 -40 -50 -4 -48 -16 5 -28 l42 -9 7 -65 c4 -36 6 -71 3 -77 -3
-9 -29 -13 -81 -13 -56 0 -75 -3 -72 -12 5 -14 61 -26 119 -27 44 -1 49 -10
49 -98 l0 -66 -88 7 c-85 7 -142 2 -142 -13 0 -13 95 -33 165 -34 l70 -2 3
-82 3 -83 -51 0 c-28 0 -61 5 -73 12 -37 20 -187 5 -187 -19 0 -5 28 -8 62 -8
60 0 64 -1 78 -30 l15 -30 25 23 c22 21 31 23 74 17 28 -3 53 -8 57 -11 4 -2
11 -40 15 -84 l7 -80 258 0 c143 0 259 3 259 7 0 7 -59 201 -90 293 -29 89
-67 162 -150 291 -19 30 -33 60 -32 68 2 7 -1 10 -8 6 -7 -4 -10 0 -8 11 2 10
-6 22 -18 29 -12 6 -28 16 -36 23 -17 13 -24 107 -9 116 19 12 -9 51 -47 65
-20 7 -64 13 -96 13 -38 0 -64 5 -73 14 -17 17 -37 19 -27 2 4 -7 3 -8 -5 -4
-6 4 -9 11 -6 15 2 5 -7 13 -21 20 -29 13 -44 14 -45 4z"/>
<path d="M3756 2387 c-38 -28 2 -95 43 -70 14 9 21 9 30 0 9 -9 14 -9 20 2 7
11 9 11 14 0 4 -11 8 -10 19 5 15 19 15 19 26 1 8 -16 13 -17 26 -6 21 18 20
41 -1 42 -10 0 -29 2 -42 5 -14 2 -28 -1 -33 -8 -5 -8 -8 -2 -8 17 -1 26 -2
28 -13 14 -11 -15 -15 -15 -32 -3 -23 17 -27 17 -49 1z m36 -19 c7 -19 -2 -38
-18 -38 -15 0 -17 9 -8 34 7 19 20 21 26 4z"/>
<path d="M4097 2383 c-8 -8 -9 -67 -1 -75 13 -14 59 9 62 31 6 37 -38 68 -61
44z m41 -39 c-5 -28 -28 -29 -28 -1 0 13 3 27 7 31 10 10 25 -10 21 -30z"/>
<path d="M3960 2342 c0 -27 2 -29 43 -28 35 1 43 5 45 22 4 27 -28 42 -40 19
-11 -19 -28 -20 -28 0 0 8 -4 15 -10 15 -5 0 -10 -13 -10 -28z"/>
<path d="M4172 2336 c-9 -20 -8 -25 4 -30 27 -10 42 -7 46 12 12 44 -31 60
-50 18z"/>
<path d="M4240 2340 c0 -8 4 -21 9 -28 6 -11 11 -10 25 3 23 24 20 40 -9 40
-16 0 -25 -6 -25 -15z"/>
<path d="M4305 2348 c-4 -10 -4 -26 -1 -35 6 -14 9 -15 16 -3 7 11 11 11 24 1
13 -11 18 -10 31 2 8 9 15 20 15 25 0 18 -33 23 -51 6 -16 -14 -18 -14 -22 3
-4 17 -4 17 -12 1z"/>
<path d="M4406 2352 c-9 -15 6 -52 20 -52 16 0 16 5 8 38 -6 22 -19 29 -28 14z"/>
<path d="M5057 2316 c-14 -100 -8 -240 12 -282 10 -21 29 -83 42 -136 l24 -98
34 0 c28 0 32 3 26 18 -89 222 -92 232 -105 371 -6 64 -14 130 -19 147 -7 27
-8 26 -14 -20z"/>
<path d="M7018 1852 c-4 -15 -19 -20 -79 -26 -118 -11 -108 -26 18 -26 l110 0
-16 35 c-18 39 -27 43 -33 17z"/>
<path d="M4287 1843 c-15 -15 -6 -43 13 -43 11 0 20 6 20 14 0 17 -24 38 -33
29z"/>
<path d="M4440 1810 c0 -5 5 -10 10 -10 6 0 10 5 10 10 0 6 -4 10 -10 10 -5 0
-10 -4 -10 -10z"/>
</g>
</svg>
